<svg xmlns="http://www.w3.org/2000/svg"
     viewBox="0 0 350 350"
     role="img"
     aria-label="Filepad">

  <path fill="#121212" fill-rule="evenodd" clip-rule="evenodd" d="M76 144 L76 146 L74 150 L74 154 L73 155 L73 235 L74 236 L82 236 L83 235 L83 189 L85 187 L214 187 L215 186 L215 178 L213 176 L84 176 L83 175 L83 160 L84 159 L84 154 L89 142 L98 132 L108 126 L114 125 L115 124 L266 124 L267 125 L267 190 L266 191 L266 195 L265 196 L265 198 L262 205 L260 207 L258 211 L251 218 L245 221 L243 223 L241 223 L237 225 L231 225 L230 226 L141 226 L140 227 L140 235 L141 236 L238 236 L239 235 L242 235 L253 230 L259 225 L260 225 L264 221 L264 220 L270 213 L276 199 L276 195 L277 194 L277 114 L276 113 L114 113 L113 114 L110 114 L109 115 L104 116 L96 120 L93 123 L92 123 L83 132 Z"/>
</svg>
